<?xml version="1.0" encoding="utf-8"?>
<!-- Generator: Adobe Illustrator 25.2.1, SVG Export Plug-In . SVG Version: 6.00 Build 0)  -->
<svg version="1.1" xmlns="http://www.w3.org/2000/svg" xmlns:xlink="http://www.w3.org/1999/xlink" x="0px" y="0px" width="267.5px"
	 height="101.7px" viewBox="0 0 267.5 101.7" style="enable-background:new 0 0 267.5 101.7;" xml:space="preserve">
<g id="Calque_2">
</g>
<g id="Calque_1">
	<g>
		<path d="M213.3,56.5c-1.4-0.7-3.4-0.2-4.1,1.2c-0.3,0.6-0.3,1.4,0,2c0.2,0.6,0.7,1.1,1.3,1.4c0.2,0.1,0.4,0.2,0.6,0.2
			c0.3,0,0.5,0,0.8-0.1c0.9-0.3,1.6-1.1,1.6-2.1c0-0.3-0.1-0.6-0.2-0.9c0.7,0.8,0.4,2.3-0.5,3c-0.9,0.8-2.1,1-3.3,1
			c-6.6,0.2-12.6-3.6-18.6-6.5c-6-3-13.2-5.2-19.1-2.1c-3.2,1.6-5.5,4.7-6.3,8.2c-0.7,3.2,0,6.8,2.2,9.3c0.9,1.1,2.1,1.9,3.3,2.5
			c1.2,0.6,2.5,0.9,4,0.8c4.1-0.2,7.5-3.6,7.7-7.7c0.2-4.3-2.9-7.8-7-8.4c-0.2,0-0.3,0-0.5-0.1c-0.4,0-0.7,0-1.1,0
			c-3.1,0.1-5.7,2-7,4.7c-0.2,0.4-0.4,0.9-0.5,1.4c-1-2.8,0.4-6,2.7-8c3.4-3,8.4-3.8,12.8-2.5c4.4,1.3,8,4.5,10.4,8.3
			c3.4,5.3,4.6,11.9,3.3,18.1c-1.1,5.9-4.8,11.5-10.1,15c0,0,0,0-0.1,0c-3.4,2.2-7.6,2.8-11.4,1.5c-9.9-3.3-17.1-12.7-17.1-23.7
			c0-12.2,8.8-22.4,20.4-24.5c0.2-0.1,0.4-0.2,0.7-0.2c-7.5-1.2-11.7-4-15.5-8.5c-0.3-0.3-0.8-0.4-1.1-0.1c-0.3-0.3-0.4-0.6-0.6-0.9
			c-0.2-0.4-0.7-0.4-0.9,0c-0.3,0.4-0.5,1-0.5,1c0-0.8,0.2-1.7,0.8-2.3c-0.8,0.4-1.2,1-1.2,1c0-0.4,0.1-0.9,0.5-1.2
			c-0.8,0.4-1.2,1.4-1.2,1.4c0-0.7,0.2-1,0.3-1.5c-0.8,0.4-1.3,1.4-1.3,1.4c0.3-0.8,0.7-1.7,1.5-2.4c-0.9,0.1-2.6,2.2-2.6,2.2
			c0.5-0.8,1.1-2.5,2.2-3.3c-0.7,0.3-1.3,1-1.3,1c0.3-0.5,0.7-1.2,1.2-1.7c-0.7,0.4-1.1,1.2-1.1,1.2c0.1-0.7,0.1-0.9,0.3-1.4
			c-0.5,0.4-0.9,0.9-0.9,0.9c0.2-0.7,0.7-1.3,1.3-1.9c-0.7,0.4-1.4,0.7-1.4,0.7c0.2-0.3,0.4-0.6,0.7-0.9c-0.4,0.2-0.7,0.4-0.7,0.4
			c0.3-0.4,0.7-0.9,1.2-1.4c-0.4,0.2-0.9,0.7-0.9,0.7c0.1-0.2,0.4-0.7,0.6-0.9c-0.5,0.3-1.5,1.1-1.5,1.1c0.2-0.3,0.9-1.1,1.1-1.4
			c-0.8,0.1-1.6,0.7-1.6,0.7c0.3-0.5,1.1-1,1.7-1.5c-1,0.3-2.5,1.2-2.5,1.2c0.4-0.6,1-1.2,1.8-1.9h-0.1c-0.8,0-3.1,1.3-3.1,1.3
			c0.6-1,2-2.1,3.3-2.9c-0.8,0.1-3,1.3-3,1.3c0.5-0.8,1.4-1.6,2.4-2.3c-0.8,0.4-1.7,0.9-1.7,0.9c0.3-0.6,0.9-1.1,1.6-1.7
			c-0.7,0.3-1.3,0.7-1.3,0.7c0.4-0.7,1.2-1.4,2.1-2.1c0,0,0,0,0-0.1c-0.5,0.3-0.9,0.5-0.9,0.5c0.2-0.3,0.5-0.7,0.9-1l0,0
			c-0.7,0.3-1.3,0.7-1.3,0.7c0.2-0.4,0.6-0.8,1-1.2c-0.8,0.4-1.5,0.8-1.5,0.8c0.3-0.5,0.9-1.1,1.5-1.6c-0.5,0.3-1,0.5-1,0.5
			c0.3-0.5,0.8-1,1.4-1.5c-1,0.4-2.3,1.2-2.3,1.2c0.5-0.8,1.5-1.7,2.5-2.4l0,0c-0.6,0.3-1.1,0.6-1.1,0.6c0.3-0.4,0.7-0.9,1.2-1.4
			c-1,0.4-2.3,1.2-2.3,1.2c0.4-0.6,1-1.2,1.7-1.8c-0.9,0.4-2,1-2,1c0.6-0.9,1.8-2,3.1-2.8c-0.8,0.4-1.7,0.9-1.7,0.9
			c0.5-0.8,1.4-1.6,2.3-2.3c0,0,0,0,0-0.1c-0.7,0.3-1.2,0.7-1.2,0.7c0.4-0.6,1-1.2,1.7-1.8l0,0c-1,0.4-2.1,1.1-2.1,1.1
			c0.5-0.8,1.5-1.7,2.6-2.5c-1,0.3-2.6,1.3-2.6,1.3c0.8-1.3,2.8-2.7,4.4-3.7c0,0,0-0.1,0.1-0.1c-0.8,0-3.1,1.3-3.1,1.3
			c0.8-1.4,3.2-3,4.8-3.9c-1,0-3,0.4-3,0.4c1.2-1,3.7-1.8,5.5-2.2c-1-0.1-3,0.4-3,0.4c1.1-1,3.5-1.7,5.3-2.2c-0.8,0-1.6,0-1.6,0
			c1.7-1,5.6-1.1,7.2-1.2c3-0.2,6,0.7,8.4,2.4c3.6,2.5,1,2.6,4.6,5.3c1.6,1.2,3.2,1.7,4.8,4c0.3,0.4,0.7,0.9,0.4,0.9
			c-0.6,0.1-2.5-0.2-2.9-0.3c-2.4-0.3-4.1-0.8-6.5-1.1c-0.9-0.1-1.1,0.1-2.9,0c-0.1,0-0.2,0-0.3,0c-0.1,0-1.4,0.5-1.4,1.1
			c0,0,0-0.3,0.1-0.6l0,0c-0.1,0.3-0.3,0.8-0.1,0.9c0,0-0.3-0.2-0.5-0.5l0,0c0,0.3,0,0.7,0,0.8c0,0-0.2-0.2-0.3-0.5
			c0,0.2,0,0.5,0.2,0.6c0,0-0.3-0.1-0.4-0.3c0,0.1,0.1,0.3,0.2,0.3c0,0-0.2-0.1-0.4-0.2c0,0.2,0,0.5,0.2,0.7c0,0-0.3-0.1-0.4-0.3
			c0,0.2,0,0.5,0.2,0.7c0,0-0.3-0.1-0.5-0.4c0,0.1,0.1,0.3,0.2,0.4c0,0-0.2-0.1-0.3-0.2c0,0.3,0.1,0.6,0.4,0.9c0,0-0.2-0.1-0.4-0.3
			c0,0.3,0.1,0.6,0.4,0.8c0,0-0.3-0.1-0.5-0.3c0,0.3,0.1,0.6,0.4,0.8c0,0-0.4-0.1-0.6-0.4c0,0.4,0.1,0.8,0.5,1.1c0,0-0.7-0.3-1-0.8
			c0.1,0.3,0.2,0.5,0.4,0.7c0,0-0.2-0.1-0.5-0.3c0,0.4,0,1,0.5,1.4c0,0-0.4-0.2-0.8-0.5c0.2,0.4,0.4,0.7,0.9,0.9c0,0-0.5,0-1.1-0.2
			c0.2,0.3,0.4,0.7,0.9,0.8c0,0-0.3,0-0.6-0.1c0.2,0.2,0.3,0.3,0.6,0.4c0,0-0.4,0-0.9-0.2c0.4,0.5,0.9,1.1,1.8,1.1
			c0,0-0.3,0.1-0.8,0.1l0,0c0.4,0.2,0.9,0.3,1.4,0.1c0,0-0.3,0.2-0.8,0.4c0.3,0.1,0.7,0.1,1.1,0c0,0-0.3,0.2-0.8,0.4
			c1.8,1.5,4.3,2.9,7.1,2.4c0,0-0.6,0.3-1.7,0.6c1.2-0.1,2.5-0.4,3.4-1.5c0,0-0.5,1-1.4,2c0.4-0.1,0.7-0.2,1-0.5
			c0,0-0.2,0.4-0.6,0.8h0.1c0.4-0.2,0.9-0.6,1-1.2c0,0,0,0.6-0.2,1.2c0.6,0,1.2-0.2,1.8-0.5c0,0-0.5,0.5-1.2,1c0.1,0,0.1,0,0.2,0
			c1.2-0.6,2.3-1.5,3.1-2.8c0,0-0.3,0.9-0.9,2.2c0,0,0,0,0.1,0c0.6-0.3,1.3-0.7,1.5-1.6c0,0,0,0.4-0.1,0.9c1-0.6,1.9-1.4,2.6-2.4
			c0,0-0.3,0.9-0.9,2.2c1-0.8,2-1.8,2.6-3c1.1-3.5,0.2-7.2-0.9-9.8c-4.3-9.7-15.4-14.7-26.2-12c-10.4,2.3-19.3,12.6-19.1,23.2
			s8.6,20.5,19,22.5c-1.1,0.2-2.2,0.5-3.3,0.9c-11,3-19,13.1-19,25c0,14.3,11.6,25.9,25.9,25.9v-0.1c3.4,0.2,6.8-0.2,10.1-1.3
			c0.2-0.1,0.4-0.2,0.7-0.2c0.2-0.1,0.5-0.2,0.7-0.3l0,0c8.7-3.6,15.1-12.2,16.1-21.5c0.4-4.2,3.3-8,7.1-9.7c2-0.8,4.1-1.2,6.1-1.9
			c2-0.8,3.9-2.3,4.3-4.4C215.4,58.9,214.7,57.2,213.3,56.5z"/>
	</g>
	<g>
		<path d="M16.5,37.1c0,1.3-0.5,1.9-1.5,1.9c-0.4,0-1.1-0.4-2-1.2c-0.9-0.8-1.5-1.1-1.9-1.1c-0.4,0-0.7,0.1-0.9,0.4S9.9,37.6,9.9,38
			c0,0.8,0.5,2.4,1.5,4.6c1.1,2.5,1.7,4.2,1.7,5.2c0,1.9-0.6,3.6-1.9,5c-1.3,1.4-3,2.2-5,2.2c-1,0-2-0.3-2.8-0.8
			c-0.9-0.6-1.3-1.1-1.3-1.7c0-0.6,0.2-1,0.5-1.4C3,50.7,3.4,50.6,4,50.6c0.5,0,1,0.4,1.6,1.1c0.5,0.6,0.9,1,1.3,1.2
			c0.4,0.2,0.8,0.3,1.2,0.3c0.6,0,1-0.3,1.4-0.8c0.3-0.5,0.5-1.2,0.5-2.2c0-0.7-0.4-1.8-1.2-3.5c-1.2-2.4-1.8-4.4-1.8-5.8
			c0-1.5,0.6-3,1.8-4.3s2.6-2,4.2-2c1.1,0,1.9,0.2,2.6,0.7C16.2,35.8,16.5,36.4,16.5,37.1z"/>
		<path d="M31,37.9c0,2-1,3.8-3,5.4c-2,1.6-4.3,2.4-7,2.4c-0.1,0.9-0.1,1.7-0.1,2.4c0,1.3,0.2,2.2,0.5,2.8c0.4,0.6,1,0.8,1.8,0.8
			c1.9,0,3.5-1.1,5-3.2l0.1-0.1c0.1,0,0.2,0.1,0.4,0.2c0.1,0.2,0.2,0.3,0.2,0.4c0,0.3-0.4,1-1.3,2.2c-0.9,1.2-1.8,2.1-2.8,2.7
			c-1,0.6-2,1-2.9,1c-1.4,0-2.6-0.6-3.5-1.7c-0.9-1.1-1.4-2.4-1.4-3.9c0-2.1,0.6-4.3,1.7-6.6c1.1-2.3,2.5-4.2,4.2-5.8
			s3.3-2.3,4.8-2.3c1.1,0,1.9,0.3,2.5,0.9C30.7,36.1,31,36.9,31,37.9z M27.9,38.7c0-1.2-0.5-1.8-1.6-1.8c-1.1,0-2,0.7-3,2.2
			s-1.6,3.2-2,5.4c1.2,0,2.3-0.3,3.3-0.8c1-0.5,1.7-1.3,2.4-2.2C27.6,40.4,27.9,39.5,27.9,38.7z"/>
		<path d="M62.6,37.5c0,0.8-0.2,1.5-0.6,2.3l-4.8,9.7c-0.5,1.1-0.8,1.8-0.8,2.2c0,0.3,0.1,0.4,0.4,0.4c0.5,0,1.4-0.8,2.9-2.5
			c0.8-0.9,1.2-1.3,1.3-1.3c0.2,0,0.3,0.1,0.5,0.2c0.1,0.2,0.2,0.3,0.2,0.5c0,0.2-0.6,0.9-1.7,2.1c-1.1,1.2-2.2,2.1-3.2,2.8
			c-1,0.7-1.8,1-2.5,1c-1.4,0-2.1-0.6-2.1-1.8c0-0.8,0.3-1.9,1-3.3l4.7-9.7c0.3-0.6,0.5-1.1,0.5-1.6c0-0.7-0.4-1.1-1.2-1.1
			c-0.7,0-1.7,0.8-2.9,2.3c-1.3,1.5-3.6,4.9-6.9,10.1l-1.8,3.7c-0.3,0.6-1,0.9-2.1,0.9c-1.2,0-1.9-0.2-1.9-0.7c0-0.1,0-0.1,0.1-0.2
			l6.4-13.4c0.3-0.6,0.4-1.1,0.4-1.5c0-0.8-0.4-1.1-1.2-1.1c-0.8,0-1.9,0.8-3.2,2.3c-1.3,1.5-3.6,4.9-6.8,10.1l-1.7,3.7
			c-0.3,0.6-1,0.9-2.1,0.9c-1.2,0-1.9-0.2-1.9-0.7c0-0.1,0-0.1,0.1-0.2L38,40.1c0.5-1.1,0.7-1.8,0.7-2.2c0-0.4-0.1-0.5-0.4-0.5
			c-0.5,0-1.5,0.9-3.1,2.8c-0.6,0.7-0.9,1.1-1,1.1c-0.2,0-0.4-0.1-0.5-0.2c-0.1-0.2-0.2-0.3-0.2-0.5c0-0.2,0.5-0.9,1.6-2.1
			s2.1-2.1,3.1-2.8c1-0.7,1.8-1,2.5-1c1.5,0,2.2,0.7,2.2,2c0,0.8-0.3,1.8-0.9,3.1l-1,2.1c1.2-2.1,2.7-3.9,4.3-5.2
			c1.6-1.3,3.1-2,4.6-2c0.9,0,1.6,0.3,2.1,0.8c0.5,0.5,0.7,1.2,0.7,2.1c0,0.7-0.2,1.5-0.5,2.2l-0.9,1.8c1.3-2.2,2.7-3.9,4.2-5.1
			c1.5-1.2,2.9-1.8,4.2-1.8c0.9,0,1.6,0.3,2.1,0.8C62.3,35.9,62.6,36.6,62.6,37.5z"/>
		<path d="M84,35l-6.2,14.4c-0.4,1-0.7,1.7-0.7,2.2c0,0.4,0.1,0.5,0.4,0.5c0.4,0,1.4-0.9,2.9-2.7c0.7-0.8,1.1-1.2,1.1-1.2
			c0.2,0,0.3,0.1,0.5,0.3s0.2,0.3,0.2,0.5c0,0.2-0.5,0.9-1.6,2.1s-2.1,2.1-3,2.8s-1.8,1-2.4,1c-1.5,0-2.2-0.7-2.2-2.1
			c0-1.3,0.6-3.1,1.8-5.4c-1.1,2-2.5,3.7-4.3,5.2c-1.8,1.5-3.3,2.2-4.7,2.2c-0.7,0-1.3-0.3-1.8-0.9c-0.4-0.6-0.6-1.4-0.6-2.4
			c0-1.9,0.8-4.1,2.4-6.6s3.6-4.7,5.9-6.5c2.3-1.9,4.3-2.8,5.9-2.8c0.8,0,1.4,0.2,1.9,0.5l0.5-1.3c0.2-0.5,1-0.7,2.3-0.7
			c1.1,0,1.6,0.2,1.6,0.6L84,35z M78.6,38.5c0-0.9-0.3-1.3-1-1.3c-1.2,0-2.7,0.7-4.3,2.1s-3,3.1-4.2,5.1c-1.2,2-1.8,3.7-1.8,5
			c0,0.8,0.1,1.4,0.4,1.7c0.2,0.3,0.7,0.5,1.3,0.5c0.7,0,1.9-0.9,3.5-2.6c1.6-1.7,3-3.6,4.3-5.8C77.9,41.1,78.6,39.5,78.6,38.5z"/>
		<path d="M103.9,37.5c0,1-0.3,2.2-0.9,3.7l-3.5,8.3c-0.5,1.2-0.7,1.9-0.7,2.2c0,0.4,0.1,0.5,0.4,0.5c0.5,0,1.5-0.8,2.8-2.4
			c0.6-0.7,1-1.1,1.1-1.1c0.2,0,0.3,0.1,0.5,0.2c0.1,0.2,0.2,0.3,0.2,0.5c0,0.2-0.5,0.9-1.5,2c-1,1.1-2,2-3,2.6
			c-1,0.6-1.8,0.9-2.5,0.9c-0.6,0-1.1-0.1-1.5-0.4s-0.6-0.7-0.6-1.2c0-0.8,0.3-2,1-3.5l3.6-8.5c0.4-1,0.6-1.7,0.6-2.4
			c0-0.8-0.3-1.2-1-1.2c-0.8,0-2,1.1-3.6,3.2c-1.6,2.1-3.4,5-5.4,8.6l-1.5,4.2c-0.1,0.2-0.3,0.4-0.8,0.5c-0.5,0.1-0.9,0.2-1.4,0.2
			c-0.4,0-0.8-0.1-1.2-0.2s-0.5-0.3-0.5-0.5l0-0.1l4.6-13.6c0.4-1,0.6-1.7,0.6-2.2c0-0.4-0.1-0.5-0.4-0.5c-0.5,0-1.3,0.8-2.5,2.3
			c-0.6,0.8-1,1.2-1.1,1.2c-0.2,0-0.4-0.1-0.5-0.3s-0.2-0.3-0.2-0.5c0-0.2,0.5-0.9,1.5-2c1-1.1,1.9-2,2.8-2.6c0.9-0.6,1.7-1,2.3-1
			c1.5,0,2.2,0.7,2.2,2c0,0.8-0.2,1.8-0.7,3.1l-1.3,3.7c1.7-2.8,3.3-5,5-6.5c1.6-1.5,3.1-2.3,4.5-2.3c0.8,0,1.5,0.3,2,0.8
			C103.6,36,103.9,36.7,103.9,37.5z"/>
		<path d="M120.2,36.4c0,0.3-0.1,0.6-0.3,0.8c-0.2,0.3-0.4,0.4-0.6,0.4l-4.4-0.1l-4.1,12c-0.3,0.9-0.4,1.6-0.4,2
			c0,0.5,0.2,0.7,0.5,0.7c0.7,0,2.1-0.9,4.1-2.8c0.8-0.7,1.2-1.1,1.3-1.1c0.2,0,0.4,0.1,0.5,0.3c0.2,0.2,0.2,0.3,0.2,0.5
			c0,0.2-0.6,0.9-1.9,2.1s-2.5,2.1-3.7,2.8c-1.2,0.7-2.1,1-2.8,1c-1.6,0-2.4-0.8-2.4-2.5c0-0.8,0.2-1.7,0.5-2.7l4.2-12.3l-3.4,0.1
			c-0.3,0-0.4-0.2-0.4-0.7c0-0.3,0.1-0.6,0.3-0.8s0.4-0.4,0.6-0.4h3.6l1.6-4.7c0.1-0.2,0.3-0.4,0.8-0.5c0.5-0.1,0.9-0.2,1.4-0.2
			c0.4,0,0.8,0.1,1.2,0.2c0.4,0.1,0.5,0.3,0.5,0.5l0,0.1l-1.6,4.7h4.2C120.1,35.7,120.2,35.9,120.2,36.4z"/>
		<path d="M130.5,36.5c0,0.9-0.3,2-0.9,3.3l-4.8,9.7c-0.5,1-0.7,1.7-0.7,2.2c0,0.4,0.1,0.5,0.4,0.5c0.5,0,1.5-0.9,3-2.6
			c0.7-0.8,1.1-1.3,1.2-1.3c0.2,0,0.4,0.1,0.5,0.3c0.1,0.2,0.2,0.3,0.2,0.5c0,0.2-0.6,0.9-1.7,2.1c-1.1,1.2-2.2,2.1-3.2,2.8
			c-1,0.7-1.8,1-2.5,1c-1.4,0-2.1-0.6-2.1-1.9c0-0.7,0.3-1.8,1-3.2l4.8-9.7c0.5-1,0.7-1.7,0.7-2.2c0-0.3-0.1-0.4-0.4-0.4
			c-0.5,0-1.5,0.9-3.1,2.8c-0.6,0.7-1,1.1-1.1,1.1c-0.2,0-0.3-0.1-0.5-0.2c-0.1-0.2-0.2-0.3-0.2-0.5c0-0.2,0.6-0.9,1.7-2.1
			s2.2-2.1,3.2-2.8s1.9-1,2.6-1C129.8,34.6,130.5,35.3,130.5,36.5z M133.1,26.4c0,0.7-0.2,1.3-0.7,1.7s-1.1,0.7-1.7,0.7
			c-0.7,0-1.3-0.2-1.8-0.7c-0.5-0.5-0.7-1.1-0.7-1.7c0-0.7,0.2-1.3,0.7-1.8c0.5-0.5,1.1-0.7,1.8-0.7c0.7,0,1.3,0.2,1.7,0.7
			S133.1,25.7,133.1,26.4z"/>
		<path d="M147.3,37.4c0,0.5-0.1,0.8-0.4,1.1s-0.6,0.4-1.1,0.4c-0.8,0-1.5-0.4-2.3-1.3c-0.6-0.7-1.2-1.1-1.8-1.1
			c-0.6,0-1.4,0.7-2.4,2c-0.9,1.4-1.7,3-2.2,4.9c-0.5,1.9-0.8,3.8-0.8,5.9c0,1.8,0.7,2.6,2.1,2.6c0.6,0,1.4-0.3,2.2-0.9
			c0.8-0.6,1.6-1.3,2.3-2.2l0.1,0c0.1,0,0.2,0.1,0.4,0.2c0.1,0.1,0.2,0.3,0.2,0.4c0,0.3-0.4,1-1.3,2c-0.9,1.1-1.8,1.9-2.7,2.5
			c-0.9,0.6-1.8,0.9-2.7,0.9c-1.3,0-2.4-0.5-3.3-1.6c-0.9-1.1-1.4-2.4-1.4-3.9c0-2.1,0.6-4.3,1.7-6.6c1.1-2.3,2.6-4.2,4.4-5.8
			s3.4-2.4,4.9-2.4c1.1,0,2,0.3,2.8,0.8S147.3,36.7,147.3,37.4z"/>
		<path d="M211.1,39c0,2.2-0.8,4.5-2.3,6.9c-1.6,2.4-3.5,4.6-5.9,6.4c-2.4,1.8-4.4,2.7-6.1,2.7c-2.8,0-4.1-1.2-4.1-3.5
			c0-1.2,0.3-2.6,1-4.3l7-18.2c0.3-0.9,0.5-1.5,0.5-2c0-0.6-0.6-0.9-1.8-1.1c-0.2,0-0.4-0.2-0.4-0.5c0-0.4,0.1-0.5,0.4-0.5
			c0.9-0.2,2.1-0.5,3.4-1c1.3-0.5,2.3-0.9,3-1.4c0.3-0.2,0.5-0.3,0.7-0.3c0.3,0,0.4,0.2,0.4,0.5c0,0.3-0.1,0.7-0.3,1.1l-6.9,17.9
			c1.4-2.2,2.9-4,4.4-5.2c1.6-1.2,3-1.8,4.4-1.8c0.8,0,1.5,0.4,2,1.1S211.1,37.6,211.1,39z M207.5,40.2c0-1.5-0.5-2.2-1.6-2.2
			c-1,0-2.2,0.8-3.7,2.3c-1.5,1.6-2.9,3.4-4,5.4c-1.1,2-1.7,3.7-1.7,5c0,1.2,0.4,1.8,1.3,1.8c1.4,0,2.8-0.7,4.2-2
			c1.5-1.3,2.8-3,3.9-5.2C207,43.3,207.5,41.6,207.5,40.2z"/>
		<path d="M223.4,36.5c0,0.9-0.3,2-0.9,3.3l-4.8,9.7c-0.5,1-0.7,1.7-0.7,2.2c0,0.4,0.1,0.5,0.4,0.5c0.5,0,1.5-0.9,3-2.6
			c0.7-0.8,1.1-1.3,1.2-1.3c0.2,0,0.4,0.1,0.5,0.3c0.1,0.2,0.2,0.3,0.2,0.5c0,0.2-0.6,0.9-1.7,2.1c-1.1,1.2-2.2,2.1-3.2,2.8
			c-1,0.7-1.8,1-2.5,1c-1.4,0-2.1-0.6-2.1-1.9c0-0.7,0.3-1.8,1-3.2l4.8-9.7c0.5-1,0.7-1.7,0.7-2.2c0-0.3-0.1-0.4-0.4-0.4
			c-0.5,0-1.5,0.9-3.1,2.8c-0.6,0.7-1,1.1-1.1,1.1c-0.2,0-0.3-0.1-0.5-0.2c-0.1-0.2-0.2-0.3-0.2-0.5c0-0.2,0.6-0.9,1.7-2.1
			s2.2-2.1,3.2-2.8s1.9-1,2.6-1C222.7,34.6,223.4,35.3,223.4,36.5z M226,26.4c0,0.7-0.2,1.3-0.7,1.7s-1.1,0.7-1.7,0.7
			c-0.7,0-1.3-0.2-1.8-0.7c-0.5-0.5-0.7-1.1-0.7-1.7c0-0.7,0.2-1.3,0.7-1.8c0.5-0.5,1.1-0.7,1.8-0.7c0.7,0,1.3,0.2,1.7,0.7
			S226,25.7,226,26.4z"/>
		<path d="M242.7,37.1c0,0.7-0.2,1.3-0.6,1.8c-0.4,0.4-0.9,0.7-1.5,0.7c-0.5,0-1-0.3-1.5-0.8c-0.4-0.5-0.8-0.7-1.2-0.7
			c-0.9,0-2.3,1.5-4.1,4.5s-3.7,6.7-5.6,11.2c-0.2,0.5-0.9,0.7-2,0.7c-0.4,0-0.7-0.1-1-0.2c-0.3-0.1-0.5-0.3-0.5-0.5l0-0.1l4.6-13.6
			c0.4-1.1,0.6-1.9,0.6-2.2c0-0.4-0.1-0.5-0.4-0.5c-0.5,0-1.3,0.8-2.5,2.4c-0.6,0.8-0.9,1.1-1.1,1.1c-0.2,0-0.4-0.1-0.5-0.3
			c-0.1-0.2-0.2-0.3-0.2-0.5c0-0.2,0.5-0.9,1.5-2c1-1.1,1.9-2,2.8-2.6c0.9-0.6,1.7-1,2.3-1c1.5,0,2.3,0.7,2.3,2
			c0,0.7-0.2,1.8-0.7,3.1l-0.8,2.4c2.8-5,5.2-7.5,7.3-7.5c0.8,0,1.5,0.2,2,0.7C242.5,35.8,242.7,36.4,242.7,37.1z"/>
		<path d="M265.4,22.6c0,0.2-0.1,0.6-0.2,1.1l-9,24.8c-0.5,1.4-0.8,2.3-0.8,2.7c0,0.5,0.1,0.7,0.4,0.7c0.5,0,1.4-0.9,2.8-2.7
			c0.5-0.7,0.8-1,0.9-1c0.2,0,0.4,0.1,0.5,0.3s0.3,0.3,0.3,0.5c0,0.2-0.5,1-1.4,2.2c-1,1.2-1.9,2.1-2.8,2.8c-0.9,0.7-1.7,1-2.4,1
			c-1.6,0-2.4-0.8-2.4-2.5c0-1.1,0.4-2.5,1.2-4.4c-1.1,2-2.5,3.6-4.1,4.9c-1.6,1.3-3,2-4.2,2c-1,0-1.8-0.4-2.5-1.2
			c-0.6-0.8-1-1.9-1-3.2c0-2.1,0.7-4.4,2.2-6.8c1.4-2.5,3.3-4.6,5.4-6.4c2.2-1.8,4.1-2.7,5.7-2.7c0.5,0,1.1,0.1,1.6,0.4
			c0.6,0.2,1,0.5,1.3,0.9l2.5-7c0.3-0.9,0.5-1.5,0.5-2c0-0.6-0.6-0.9-1.9-1.1c-0.3,0-0.4-0.2-0.4-0.5c0-0.4,0.1-0.5,0.4-0.5
			c0.9-0.2,2-0.5,3.3-1s2.3-0.9,3-1.4c0.3-0.2,0.6-0.3,0.7-0.3C265.2,22.1,265.4,22.3,265.4,22.6z M256.1,38.2
			c0-1.4-0.7-2.2-2.1-2.2c-1.2,0-2.6,0.8-4.1,2.3c-1.5,1.5-2.7,3.4-3.7,5.6c-1,2.2-1.5,4.2-1.5,6.1c0,1.4,0.5,2.1,1.4,2.1
			c1,0,2.2-0.8,3.7-2.4c1.5-1.6,2.9-3.7,4.3-6.2C255.4,40.8,256.1,39.1,256.1,38.2z"/>
	</g>
</g>
</svg>
